<?xml version="1.0" standalone="no"?>
<!DOCTYPE svg PUBLIC "-//W3C//DTD SVG 20010904//EN"
 "http://www.w3.org/TR/2001/REC-SVG-20010904/DTD/svg10.dtd">
<svg version="1.0" xmlns="http://www.w3.org/2000/svg"
 width="300.000000pt" height="300.000000pt" viewBox="0 0 300.000000 300.000000"
 preserveAspectRatio="xMidYMid meet">
<metadata>
Created by potrace 1.10, written by Peter Selinger 2001-2011
</metadata>
<g transform="translate(0.000000,300.000000) scale(0.100000,-0.100000)"
fill="#000000" stroke="none">
<path d="M1463 2611 c-18 -10 -29 -22 -25 -26 4 -5 0 -6 -9 -2 -20 7 -39 -10
-39 -35 0 -10 -4 -18 -8 -18 -5 0 -14 -19 -21 -41 l-13 -42 -46 5 c-55 6 -138
-13 -134 -31 1 -7 -2 -10 -7 -6 -12 7 -54 -28 -77 -63 -31 -47 -42 -187 -21
-259 9 -28 12 -55 9 -59 -4 -4 -1 -4 6 0 12 7 16 -7 13 -49 -2 -17 0 -17 8 -5
9 13 11 13 11 -1 0 -9 9 -28 21 -43 11 -14 17 -31 13 -38 -4 -7 -4 -10 1 -6 4
4 28 -10 51 -32 55 -50 86 -54 161 -20 37 17 45 18 75 6 53 -22 155 -25 142
-4 -4 7 -3 8 5 4 23 -14 120 108 139 175 10 36 -2 59 -30 59 -9 0 -9 3 2 10
13 8 12 10 -3 10 -10 0 -15 5 -12 10 4 6 3 10 -2 9 -22 -4 -33 3 -33 22 0 11
-3 18 -7 16 -5 -3 -9 13 -11 36 -3 50 15 100 35 93 8 -3 12 -2 9 3 -3 5 3 20
14 34 11 14 20 30 20 37 0 18 -71 80 -91 80 -11 0 -19 5 -19 11 0 6 -9 8 -20
4 -24 -7 -41 22 -20 35 18 11 22 110 5 127 -18 18 -53 16 -92 -6z m72 -56
c-18 -60 -39 -91 -73 -108 -28 -14 -82 -30 -82 -24 0 2 7 26 15 53 19 66 80
123 132 124 22 0 22 -1 8 -45z m75 -151 c14 -7 36 -22 49 -33 l24 -19 -30 -15
c-53 -28 -82 -130 -55 -197 12 -30 49 -66 80 -77 l23 -9 -31 -61 c-17 -34 -49
-78 -71 -98 -45 -41 -65 -42 -162 -14 -40 11 -52 11 -80 0 -17 -8 -51 -16 -74
-18 -38 -4 -45 -1 -80 35 -146 151 -162 410 -31 495 49 31 94 35 171 12 48
-14 57 -13 112 5 63 20 110 18 155 -6z"/>
<path d="M1262 2323 c36 -37 37 -40 22 -61 -20 -30 -32 -28 -72 11 l-35 32 6
-45 c7 -58 42 -90 97 -90 21 0 40 -5 43 -12 3 -9 14 -4 33 14 22 22 26 30 16
40 -7 7 -12 27 -12 45 0 46 -43 92 -95 100 l-40 6 37 -40z m79 -125 c5 -11 4
-20 -3 -24 -7 -4 -8 -3 -4 4 6 11 -6 17 -27 13 -15 -2 -18 28 -6 51 l12 23 10
-25 c5 -14 13 -33 18 -42z"/>
<path d="M1448 2298 c-45 -49 -55 -65 -46 -76 9 -10 -6 -30 -68 -93 -43 -43
-85 -81 -94 -84 -21 -7 -63 -82 -50 -90 10 -6 72 32 79 49 5 13 132 159 151
173 10 8 19 8 28 1 7 -6 14 -9 15 -7 2 2 26 32 55 65 52 62 62 90 40 112 -24
24 -53 11 -110 -50z m82 34 c0 -4 -22 -30 -50 -57 -60 -59 -66 -46 -9 19 38
43 59 57 59 38z m20 -29 c0 -11 -83 -93 -93 -93 -6 0 10 22 34 49 42 47 59 59
59 44z"/>
<path d="M1395 2130 l-28 -29 59 -72 c69 -84 95 -98 124 -69 42 42 17 86 -101
179 l-26 20 -28 -29z m31 -19 c-3 -4 -1 -13 5 -21 7 -12 9 -12 9 -1 0 11 3 11
16 1 8 -8 19 -21 24 -30 6 -12 4 -16 -10 -16 -11 0 -17 2 -15 4 2 3 -5 12 -16
21 -20 16 -37 67 -18 56 5 -4 7 -10 5 -14z m114 -106 c0 -13 -6 -25 -12 -28
-22 -7 -38 4 -38 28 0 13 6 25 13 28 21 7 37 -4 37 -28z"/>
<path d="M953 1776 c7 -17 3 -18 -32 -13 -31 4 -44 1 -56 -14 -16 -16 -19 -17
-40 -3 -30 19 -139 24 -171 8 -14 -7 -23 -10 -20 -6 5 9 -3 10 -99 15 -38 1
-80 -1 -93 -7 -16 -7 -29 -6 -41 1 -13 8 -22 6 -42 -11 -24 -20 -24 -24 -11
-44 12 -18 12 -21 1 -17 -11 4 -14 -11 -13 -77 2 -107 1 -101 24 -126 27 -28
36 -28 56 3 17 26 27 168 12 158 -5 -2 -8 3 -8 12 0 9 4 14 9 10 5 -3 13 0 17
6 14 24 34 -36 32 -98 -1 -65 18 -113 47 -113 23 0 45 54 45 108 0 28 6 62 14
77 14 26 15 26 25 7 6 -12 11 -50 11 -86 0 -58 3 -69 25 -88 20 -17 35 -21 73
-19 88 6 96 8 103 27 4 10 8 13 8 5 1 -11 4 -11 18 0 9 8 14 9 10 3 -8 -14 35
-34 75 -34 17 0 46 9 64 21 l34 21 19 -24 19 -23 29 21 c20 15 29 31 31 57 2
21 7 37 12 37 27 0 40 -15 40 -45 0 -19 8 -39 20 -50 20 -18 50 -15 50 6 0 6
6 9 13 6 15 -6 17 49 3 72 -6 9 -5 12 1 8 18 -11 17 148 -1 162 -8 7 -14 18
-12 24 1 7 1 9 -1 5 -7 -13 -23 -9 -19 5 1 6 1 9 -1 5 -3 -5 -9 -8 -15 -8 -19
0 -38 -29 -38 -59 0 -17 -4 -31 -9 -31 -5 0 -16 -3 -24 -6 -11 -4 -17 4 -22
25 -3 17 -6 33 -5 36 1 9 -23 30 -43 38 -12 5 -16 3 -11 -5 5 -8 2 -9 -9 -5
-10 4 -16 2 -14 -5 1 -7 -6 -14 -17 -16 -13 -3 -16 0 -11 9 5 7 4 10 -3 6 -12
-8 -44 2 -38 12 2 3 -3 13 -12 21 -14 13 -15 12 -9 -4z m-553 -56 c0 -21 -24
-28 -35 -10 -8 14 3 30 21 30 8 0 14 -9 14 -20z m218 -4 c3 -13 -5 -16 -37
-16 l-41 0 0 -105 c0 -87 -3 -105 -15 -105 -12 0 -15 18 -15 105 l0 105 -40 0
c-27 0 -40 4 -40 13 0 21 3 22 97 20 71 -1 89 -4 91 -17z m186 -8 c-3 -4 -32
-8 -65 -8 l-59 0 0 -35 0 -35 55 0 c42 0 55 -3 55 -15 0 -12 -13 -15 -55 -15
l-55 0 0 -40 0 -40 65 0 c51 0 65 -3 65 -15 0 -12 -16 -15 -80 -15 l-80 0 0
120 0 119 73 3 c67 3 93 -5 81 -24z m194 -4 c27 -31 28 -54 2 -54 -11 0 -20 6
-20 14 0 26 -31 48 -59 41 -39 -9 -51 -32 -51 -95 0 -43 5 -61 19 -74 26 -24
73 -17 86 12 8 19 45 33 45 17 0 -16 -31 -63 -45 -69 -26 -9 -74 -7 -97 5 -46
25 -62 130 -28 187 35 58 104 65 148 16z m92 -19 l0 -55 60 0 60 0 0 54 c0 38
4 54 13 52 17 -2 17 -3 17 -131 0 -96 -3 -115 -15 -115 -12 0 -15 13 -15 55
l0 55 -60 0 -60 0 0 -55 c0 -46 -3 -55 -17 -55 -16 0 -18 12 -16 122 2 68 3
124 3 126 0 1 7 2 15 2 12 0 15 -13 15 -55z m-128 -36 c20 -20 36 -29 49 -26
10 3 17 1 13 -4 -3 -5 -14 -9 -26 -9 -11 0 -22 -8 -25 -18 -2 -10 -14 -24 -25
-31 -19 -12 -23 -11 -35 5 -17 23 -17 74 0 74 9 0 8 3 -2 9 -15 9 -7 31 11 31
6 0 24 -14 40 -31z m-562 -70 c0 -77 -2 -90 -16 -87 -13 2 -16 19 -17 91 -2
77 0 87 16 87 15 0 17 -11 17 -91z m410 -17 c0 -14 -7 -17 -41 -14 -45 5 -46
11 -3 17 16 1 28 8 26 15 -1 6 2 9 8 5 5 -3 10 -14 10 -23z"/>
<path d="M2154 1762 c5 -8 -1 -12 -17 -12 -25 0 -52 -22 -40 -33 3 -4 1 -7 -5
-7 -7 0 -12 -7 -12 -16 0 -8 -5 -12 -10 -9 -6 4 -10 3 -9 -2 5 -29 -2 -73 -12
-68 -6 4 -8 13 -5 21 3 8 2 14 -3 14 -5 0 -12 16 -15 35 -7 36 -51 80 -69 68
-6 -4 -2 -9 10 -14 14 -5 28 -32 49 -98 16 -50 32 -91 35 -91 3 0 19 42 37 93
24 70 35 92 49 92 22 0 23 6 -28 -132 -30 -80 -47 -113 -58 -113 -11 0 -27 32
-55 113 -21 61 -43 117 -47 123 -13 15 -117 34 -154 28 -34 -6 -36 -6 -130 -1
-68 4 -102 -4 -118 -27 -5 -7 -12 -5 -22 8 -11 14 -28 19 -71 20 -51 0 -59 -2
-80 -29 -31 -38 -31 -79 0 -110 22 -22 22 -24 5 -28 -40 -11 -36 -73 5 -101
40 -25 91 -28 121 -4 17 14 25 16 25 6 1 -7 7 -2 15 12 10 17 14 20 15 9 0
-31 28 -42 98 -40 36 1 72 7 79 13 9 7 17 7 28 -2 24 -20 52 -3 59 35 8 41 23
46 32 10 7 -29 30 -50 38 -36 4 5 -4 30 -16 55 -18 38 -27 46 -50 46 -27 0
-28 -2 -28 -50 0 -41 -3 -50 -18 -50 -15 0 -17 12 -17 118 0 64 3 119 7 122 4
3 35 3 69 0 44 -4 65 -11 75 -25 20 -28 17 -71 -7 -94 l-21 -19 28 -48 c30
-52 44 -46 21 8 -12 29 -12 37 -1 53 19 25 40 6 48 -45 8 -53 47 -94 81 -86
14 4 25 14 25 24 0 15 2 15 11 2 9 -13 10 -12 5 2 -6 19 12 78 23 78 5 0 13
10 20 23 11 21 8 5 -6 -30 -4 -11 -3 -14 5 -9 11 6 17 -23 13 -59 -1 -16 36
-35 55 -28 9 3 22 20 29 36 12 28 13 29 19 10 12 -38 53 -56 110 -49 28 4 56
7 63 8 7 1 10 5 8 9 -11 17 24 15 38 -2 14 -15 30 -19 86 -19 73 0 108 17 97
47 -3 8 -6 17 -6 19 0 2 -10 4 -22 4 -37 0 -68 11 -68 25 0 7 12 11 30 10 16
-1 31 4 34 12 4 10 -8 13 -49 13 l-55 0 0 -41 0 -41 60 4 c52 3 60 1 60 -14 0
-16 -10 -18 -80 -18 l-80 0 0 124 0 124 59 -5 c34 -3 66 -1 77 5 16 10 13 12
-21 13 -22 1 -55 2 -74 4 -32 3 -77 -25 -64 -39 4 -3 2 -6 -4 -6 -6 0 -17 10
-25 21 -30 45 -189 20 -171 -26 10 -27 -6 -15 -23 16 -14 28 -19 31 -50 26
-19 -3 -32 -2 -29 3 3 5 0 12 -6 16 -8 4 -9 3 -5 -4z m-668 -32 c47 -18 73
-70 35 -70 -10 0 -21 9 -24 20 -6 24 -52 37 -73 19 -28 -23 -13 -52 40 -72 55
-20 75 -40 76 -75 0 -59 -103 -84 -154 -37 -14 13 -26 31 -26 40 0 23 34 18
45 -7 14 -32 79 -38 94 -9 14 26 -6 46 -60 63 -69 20 -88 70 -44 113 26 27 49
31 91 15z m244 -2 c0 -5 0 -13 0 -19 0 -7 -21 -10 -60 -7 l-60 3 0 -38 0 -38
52 2 c43 3 54 0 56 -14 3 -14 -5 -17 -52 -17 l-56 0 0 -40 0 -40 60 0 c47 0
60 -3 60 -15 0 -12 -15 -15 -77 -15 l-78 0 2 122 c1 68 2 123 2 123 1 0 35 0
76 0 41 0 75 -3 75 -7z m491 0 c-1 -5 -1 -60 -1 -123 0 -103 -2 -115 -17 -115
-16 0 -18 12 -16 122 2 68 3 124 3 126 0 2 7 2 16 0 8 -2 15 -6 15 -10z m188
-3 c28 -14 41 -33 41 -61 0 -23 -30 -16 -40 10 -17 44 -75 42 -100 -4 -15 -28
-12 -103 6 -128 23 -34 94 -28 94 8 0 20 17 30 37 23 10 -4 9 -12 -2 -34 -19
-35 -44 -49 -87 -49 -61 1 -88 40 -88 125 0 66 10 89 48 109 35 19 56 20 91 1z
m-681 -43 c8 8 10 2 10 -20 -1 -28 -3 -30 -22 -20 -12 6 -24 16 -28 22 -6 8
-10 7 -16 -2 -7 -10 -11 -10 -21 2 -10 12 -8 15 11 18 13 2 30 1 39 -4 9 -4
21 -2 27 4z m662 -18 c8 -8 30 -22 49 -31 32 -13 34 -16 16 -23 -17 -7 -17 -9
-2 -9 9 -1 17 -5 17 -9 0 -5 -13 -7 -30 -4 -21 3 -32 0 -36 -12 -3 -9 -13 -16
-21 -16 -8 0 -11 -4 -8 -10 9 -15 -21 -12 -33 3 -6 6 -12 32 -13 56 -3 33 1
46 16 57 24 18 30 18 45 -2z m-647 -94 c3 -11 1 -18 -4 -14 -5 3 -9 0 -9 -5 0
-6 -14 -11 -31 -11 -27 0 -30 2 -19 15 9 11 9 15 1 15 -6 0 -14 -7 -18 -16 -5
-13 -7 -13 -14 -2 -14 21 -11 24 23 26 18 2 34 5 37 7 11 12 29 3 34 -15z"/>
<path d="M1812 1702 c-7 -2 -12 -21 -12 -43 l0 -40 41 3 c48 3 71 27 53 55
-11 18 -60 33 -82 25z"/>
<path d="M2530 1667 l0 -39 50 4 c35 2 50 -1 50 -9 0 -7 5 -13 10 -13 15 0 -6
36 -28 49 -15 10 -15 11 6 17 38 11 24 22 -33 26 l-55 3 0 -38z"/>
<path d="M1078 1328 c-13 -8 34 -12 100 -8 22 1 32 -3 32 -13 0 -10 -8 -13
-25 -9 -15 2 -25 0 -25 -7 0 -6 11 -11 25 -11 31 0 33 -17 3 -22 -35 -5 -34
-28 0 -28 21 0 33 -6 37 -19 4 -15 12 -17 37 -12 17 4 34 13 36 21 4 12 2 13
-9 3 -18 -18 -44 -16 -60 3 -15 18 -19 64 -6 64 5 0 7 6 4 13 -6 17 41 21 59
6 10 -8 14 -8 14 0 0 6 -10 13 -22 15 -45 10 -187 12 -200 4z"/>
<path d="M1794 1325 c-16 -12 -17 -17 -6 -34 15 -25 16 -41 1 -41 -5 0 -8 3
-6 8 7 11 -27 65 -43 70 -13 3 -13 2 -1 -7 12 -8 13 -15 3 -35 -7 -16 -8 -28
-2 -31 6 -4 10 4 11 17 1 20 2 19 15 -9 19 -45 44 -44 44 2 0 19 -4 35 -10 35
-5 0 -10 5 -10 10 0 6 14 10 30 10 17 0 30 -4 30 -10 0 -5 -4 -10 -10 -10 -5
0 -10 -16 -10 -36 0 -28 3 -35 18 -32 18 3 19 6 21 59 1 31 1 31 44 26 25 -4
34 -3 22 2 -41 17 -122 20 -141 6z"/>
<path d="M2050 1332 c-20 -7 -44 -32 -31 -32 5 0 13 5 16 10 3 6 14 10 24 10
22 0 46 -26 32 -34 -5 -3 -11 -1 -13 5 -2 6 -11 10 -19 8 -12 -3 -8 -12 18
-35 l33 -31 -3 43 -3 44 70 -3 71 -2 0 -37 c0 -21 4 -37 9 -35 5 1 13 -8 17
-21 8 -20 14 -23 38 -17 22 5 32 2 40 -12 6 -11 11 -13 11 -5 0 7 4 10 10 7 5
-3 18 -1 27 5 15 9 13 10 -12 9 -32 -2 -65 8 -65 21 0 4 11 5 25 2 23 -4 25
-1 25 32 0 28 -4 36 -19 36 -13 0 -22 -12 -31 -45 -7 -25 -18 -44 -24 -42 -6
2 -11 8 -11 13 -1 21 -29 90 -39 97 -6 4 -45 7 -86 5 -41 -1 -80 0 -85 4 -6 3
-17 3 -25 0z"/>
<path d="M502 1323 c-6 -2 -10 -9 -6 -14 3 -5 -2 -9 -10 -9 -12 0 -16 -10 -16
-35 0 -26 4 -35 17 -35 13 0 14 3 5 12 -7 7 -12 17 -12 23 0 5 4 5 8 -2 5 -8
12 2 19 27 5 22 10 40 9 39 -1 0 -7 -3 -14 -6z"/>
<path d="M553 1314 c-5 -13 -8 -13 -15 -2 -10 14 -7 -7 7 -47 7 -20 6 -20 -9
-1 -15 19 -16 18 -16 -14 0 -18 3 -31 6 -27 4 3 13 -1 21 -9 9 -8 22 -13 29
-10 9 3 14 -1 14 -12 0 -13 2 -14 9 -4 4 8 10 13 12 11 9 -5 49 13 49 22 0 5
7 9 15 9 10 0 15 10 15 33 0 25 -6 36 -31 50 -39 22 -97 23 -106 1z m22 -46
c-4 -67 -4 -66 -14 -48 -10 18 -2 100 9 100 5 0 7 -24 5 -52z m73 40 c7 -7 12
-26 12 -43 0 -37 -16 -55 -47 -55 -21 0 -23 4 -23 55 0 51 2 55 23 55 13 0 28
-5 35 -12z"/>
<path d="M610 1282 c0 -11 -3 -28 -6 -37 -5 -13 -2 -16 12 -13 22 4 27 59 7
66 -8 2 -13 -5 -13 -16z"/>
<path d="M766 1315 c-8 -8 -24 -15 -35 -15 -18 0 -21 -6 -20 -37 0 -29 2 -33
8 -18 5 11 6 26 4 33 -3 6 0 12 7 12 9 0 11 -10 7 -30 -9 -43 1 -37 23 15 14
32 23 43 35 39 8 -3 15 -4 15 -1 0 13 -31 14 -44 2z"/>
<path d="M902 1315 c-7 -8 -8 -15 -3 -15 5 0 13 5 16 10 9 15 42 12 59 -6 9
-8 16 -11 16 -5 0 13 -33 31 -57 31 -10 -1 -24 -7 -31 -15z"/>
<path d="M1535 1310 c-3 -11 -4 -24 -1 -29 4 -5 1 -11 -6 -13 -9 -3 -7 -14 5
-41 13 -28 22 -35 39 -32 32 6 35 15 5 15 -26 0 -27 2 -27 55 l0 55 35 0 c25
0 33 -4 29 -14 -3 -8 -13 -12 -25 -9 -11 3 -19 0 -19 -6 0 -7 8 -11 17 -9 10
2 19 -4 21 -14 2 -12 -2 -15 -17 -11 -15 4 -21 1 -21 -11 0 -12 7 -16 28 -13
30 4 43 34 20 48 -10 6 -10 9 0 9 6 0 12 7 12 15 0 9 9 15 23 15 48 0 66 -55
22 -66 -24 -6 -36 -34 -15 -34 6 0 10 5 10 11 0 6 7 8 16 5 11 -4 19 4 30 30
16 37 12 56 -10 48 -8 -3 -17 -1 -21 5 -3 6 -37 11 -75 11 -60 0 -69 -3 -75
-20z"/>
<path d="M2334 1323 c4 -4 23 -6 42 -4 26 2 34 -1 34 -14 0 -9 -4 -13 -10 -10
-6 4 -10 -7 -10 -27 0 -23 7 -38 23 -48 30 -20 65 -30 69 -19 2 5 16 5 35 0
18 -5 35 -6 38 -1 3 5 -6 10 -20 12 -14 2 -25 6 -25 11 0 4 0 27 0 51 0 41 2
45 28 48 15 2 -27 5 -92 6 -66 1 -116 -1 -112 -5z m156 -18 c16 -20 5 -32 -14
-16 -20 17 -36 6 -36 -24 0 -26 14 -40 31 -29 8 5 8 9 -1 14 -8 5 -5 9 8 12
16 5 20 1 17 -13 -6 -29 -14 -39 -34 -39 -23 0 -41 19 -41 45 0 16 -2 17 -10
5 -5 -8 -10 -10 -10 -4 0 6 7 17 15 24 9 7 14 18 12 25 -7 17 49 17 63 0z"/>
<path d="M2285 1300 c2 -14 5 -31 5 -38 0 -7 4 -11 9 -8 12 8 20 56 10 56 -5
0 -9 -6 -10 -12 0 -7 -5 -4 -10 7 -8 17 -9 17 -4 -5z"/>
<path d="M435 1280 c4 -12 1 -27 -5 -35 -10 -12 -9 -15 4 -15 12 0 16 9 16 35
0 19 -5 35 -11 35 -6 0 -8 -9 -4 -20z"/>
<path d="M921 1296 c11 -11 79 -55 79 -51 0 13 -50 55 -65 55 -10 0 -16 -2
-14 -4z"/>
<path d="M1065 1284 c9 -9 14 -22 12 -29 -3 -6 -1 -18 4 -26 6 -9 9 0 9 29 0
36 -3 42 -21 42 -19 0 -19 -1 -4 -16z"/>
<path d="M1112 1253 l1 -48 7 45 7 45 1 -41 c1 -23 9 -47 17 -54 9 -8 15 -9
15 -2 0 6 -4 13 -8 16 -5 3 -7 23 -6 46 2 33 -1 40 -17 40 -16 0 -19 -7 -17
-47z"/>
<path d="M1247 1293 c-10 -9 -8 -51 2 -57 5 -3 22 1 37 9 16 8 22 15 14 15
-12 0 -12 2 -1 9 8 5 9 11 3 15 -6 3 -13 2 -17 -4 -3 -5 -13 -10 -21 -10 -8 0
-12 5 -9 10 4 6 11 8 16 5 5 -4 9 -1 9 4 0 12 -23 15 -33 4z"/>
<path d="M1880 1285 c0 -8 9 -15 20 -15 11 0 20 7 20 15 0 8 -9 15 -20 15 -11
0 -20 -7 -20 -15z"/>
<path d="M1933 1273 c-13 -27 -4 -44 22 -42 6 0 5 2 -1 5 -6 2 -8 18 -6 34 5
37 1 38 -15 3z"/>
<path d="M2120 1290 c0 -13 40 -13 60 0 11 7 5 10 -22 10 -21 0 -38 -4 -38
-10z"/>
<path d="M895 1266 c0 -17 3 -21 11 -15 8 6 14 4 18 -6 6 -17 36 -21 36 -5 0
6 -11 15 -25 20 -14 5 -25 14 -25 20 0 5 -3 10 -7 10 -5 0 -8 -11 -8 -24z"/>
<path d="M2023 1275 c2 -22 25 -44 45 -45 21 0 13 20 -12 30 -13 5 -26 15 -30
22 -3 7 -4 4 -3 -7z"/>
<path d="M2170 1271 c0 -5 -10 -11 -22 -13 -36 -5 -34 -28 2 -28 24 0 31 -4
26 -15 -3 -8 -1 -15 5 -15 5 0 8 18 7 40 -2 22 -6 40 -10 40 -5 0 -8 -4 -8 -9z"/>
<path d="M1320 1252 c0 -4 9 -15 20 -25 19 -16 20 -16 20 8 0 18 -5 25 -20 25
-11 0 -20 -3 -20 -8z"/>
<path d="M2200 1244 c0 -12 43 -44 51 -38 5 3 9 7 9 10 0 3 -5 2 -11 -1 -6 -4
-13 2 -16 14 -5 19 -33 31 -33 15z"/>
<path d="M760 1218 c0 -17 3 -19 9 -10 4 8 12 13 17 12 5 -1 10 3 12 9 2 6 -6
11 -17 11 -15 0 -21 -6 -21 -22z"/>
<path d="M1720 1223 c0 -15 2 -16 10 -3 7 11 10 11 10 2 0 -7 5 -10 10 -7 6 3
10 1 10 -6 0 -7 2 -10 5 -7 3 3 3 13 -1 22 -8 22 -44 21 -44 -1z"/>
<path d="M471 1211 c-19 -3 -36 -13 -38 -21 -3 -9 -1 -11 4 -5 4 6 19 11 33
13 13 1 29 7 34 12 6 6 8 9 6 9 -3 -1 -20 -4 -39 -8z"/>
<path d="M2065 1206 c-11 -9 -15 -16 -8 -16 6 0 15 5 18 10 4 7 13 6 27 -1 16
-9 19 -8 16 3 -7 19 -30 21 -53 4z"/>
</g>
</svg>
